<mxfile host="0bb2c6e4-00b9-4238-b840-bfc481de17c7" modified="2020-10-13T10:04:45.414Z" agent="5.0 (Windows NT 6.1; Win64; x64) AppleWebKit/537.36 (KHTML, like Gecko) Code/1.47.3 Chrome/78.0.3904.130 Electron/7.3.2 Safari/537.36" etag="hp-jYYRrYs1CH6fUrtfL" version="13.1.3" pages="2">
    <diagram id="xYIG51bJIM12dyCLq3SA" name="Base">
        <mxGraphModel dx="822" dy="480" grid="1" gridSize="10" guides="1" tooltips="1" connect="1" arrows="1" fold="1" page="1" pageScale="1" pageWidth="827" pageHeight="1169" math="0" shadow="0">
            <root>
                <mxCell id="6TqpIzhUsz38Vr0FgvVc-0"/>
                <mxCell id="6TqpIzhUsz38Vr0FgvVc-1" parent="6TqpIzhUsz38Vr0FgvVc-0"/>
                <mxCell id="NBD4UTcS-ftK7NEFmKqK-0" value="&lt;table cellpadding=&quot;4&quot; cellspacing=&quot;0&quot; border=&quot;1&quot; style=&quot;font-size: 1em ; width: 100% ; height: 100%&quot;&gt;&lt;tbody&gt;&lt;tr&gt;&lt;th&gt;Type&lt;/th&gt;&lt;th&gt;Content&lt;/th&gt;&lt;/tr&gt;&lt;tr&gt;&lt;td&gt;Mode&lt;/td&gt;&lt;td&gt;&lt;h3&gt;Modes&lt;/h3&gt;&lt;ol&gt;&lt;li&gt;Normal&lt;/li&gt;&lt;li&gt;Insert&lt;/li&gt;&lt;li&gt;Search&lt;/li&gt;&lt;li&gt;Ex&lt;/li&gt;&lt;li&gt;Visual&lt;/li&gt;&lt;/ol&gt;&lt;h3&gt;Transition&lt;/h3&gt;&lt;div&gt;&lt;ol&gt;&lt;li&gt;&lt;font face=&quot;Courier New&quot;&gt;[i, I, a, A, o, O]&lt;/font&gt; - from Normal to Insert&lt;/li&gt;&lt;li&gt;&lt;font face=&quot;Courier New&quot;&gt;Esc&lt;/font&gt; - from other modes to Normal&lt;/li&gt;&lt;li&gt;&lt;font face=&quot;Courier New&quot;&gt;[/, ?]&lt;/font&gt; - from Normal to Search&lt;/li&gt;&lt;li&gt;&lt;font face=&quot;Courier New&quot;&gt;:&lt;/font&gt; - from Normal to Ex&lt;/li&gt;&lt;li&gt;&lt;font face=&quot;Courier New&quot;&gt;[v, V, &amp;lt;c-v&amp;gt;]&lt;/font&gt; - from Normal to Visual&lt;/li&gt;&lt;/ol&gt;&lt;/div&gt;&lt;/td&gt;&lt;/tr&gt;&lt;tr&gt;&lt;td&gt;Text Object&lt;/td&gt;&lt;td&gt;&lt;h3&gt;Objects&lt;/h3&gt;&lt;ol&gt;&lt;li&gt;&lt;font face=&quot;Courier New&quot;&gt;w&lt;/font&gt;(ord) - exclude punctual charaters&lt;/li&gt;&lt;li&gt;&lt;font face=&quot;Courier New&quot;&gt;W&lt;/font&gt;(ORD) - include all continual characters&lt;/li&gt;&lt;li&gt;&lt;font face=&quot;Courier New&quot;&gt;s&lt;/font&gt;(ententse)&lt;/li&gt;&lt;li&gt;&lt;font face=&quot;Courier New&quot;&gt;p&lt;/font&gt;(aragraph)&lt;/li&gt;&lt;li&gt;&lt;font face=&quot;Courier New&quot;&gt;t&lt;/font&gt;(ag)&lt;/li&gt;&lt;li&gt;&lt;font face=&quot;Courier New&quot;&gt;[(, ), [, ], {, }, &amp;lt;, &amp;gt;, ', &quot;]&lt;/font&gt; - delimiter objects&lt;/li&gt;&lt;/ol&gt;&lt;h3&gt;Range&lt;/h3&gt;&lt;div&gt;&lt;ol&gt;&lt;li&gt;a(round)&lt;/li&gt;&lt;li&gt;i(nside)&lt;/li&gt;&lt;/ol&gt;&lt;h3&gt;Examples&lt;/h3&gt;&lt;/div&gt;&lt;div&gt;&lt;ol&gt;&lt;li&gt;&lt;font face=&quot;Courier New&quot;&gt;da)&lt;/font&gt; - deletes contents aournd &lt;font face=&quot;Courier New&quot;&gt;()&lt;/font&gt;, including &lt;font face=&quot;Courier New&quot;&gt;(&lt;/font&gt; and &lt;font face=&quot;Courier New&quot;&gt;)&lt;/font&gt;&lt;/li&gt;&lt;li&gt;&lt;font face=&quot;Courier New&quot;&gt;di)&lt;/font&gt; - deletes contents inside &lt;font face=&quot;Courier New&quot;&gt;()&lt;/font&gt;, excluding &lt;font face=&quot;Courier New&quot;&gt;(&lt;/font&gt; and &lt;font face=&quot;Courier New&quot;&gt;)&lt;/font&gt;&lt;/li&gt;&lt;li&gt;&lt;font face=&quot;Courier New&quot;&gt;dap&lt;/font&gt; - deltes paragraph including blank line around it&lt;/li&gt;&lt;/ol&gt;&lt;/div&gt;&lt;/td&gt;&lt;/tr&gt;&lt;tr&gt;&lt;td&gt;Normal mode&lt;/td&gt;&lt;td&gt;&lt;h3&gt;Operators&lt;/h3&gt;&lt;div&gt;&lt;ol&gt;&lt;li&gt;x - deletes current character&lt;/li&gt;&lt;li&gt;&lt;font face=&quot;Courier New&quot;&gt;d{motion}&lt;/font&gt; - deletes, &lt;font face=&quot;Courier New&quot;&gt;dd&lt;/font&gt; deletes current line&lt;/li&gt;&lt;li&gt;&lt;font face=&quot;Courier New&quot;&gt;y{motion}&lt;/font&gt; - yanks (copy), &lt;font face=&quot;Courier New&quot;&gt;yy&lt;/font&gt; yanks current line&lt;/li&gt;&lt;li&gt;&lt;font face=&quot;Courier New&quot; style=&quot;font-size: 1em&quot;&gt;p&lt;/font&gt;&lt;span style=&quot;font-size: 1em&quot;&gt; - pastes deleted or yanked contents&lt;/span&gt;&lt;br&gt;&lt;/li&gt;&lt;li&gt;&lt;span style=&quot;font-size: 1em&quot;&gt;&lt;font face=&quot;Courier New&quot;&gt;[f{char}, t{char}]&lt;/font&gt; - jumps to the &lt;font face=&quot;Courier New&quot;&gt;char&lt;/font&gt; position or the postition before the &lt;font face=&quot;Courier New&quot;&gt;char&lt;/font&gt;&lt;/span&gt;&lt;/li&gt;&lt;li&gt;&lt;font face=&quot;Courier New&quot;&gt;c{motion}&lt;/font&gt; - deletes and enters into Insert mode&lt;/li&gt;&lt;li&gt;&lt;font face=&quot;Courier New&quot;&gt;s&lt;/font&gt; - deletes current character and enters into Insert mode&lt;/li&gt;&lt;li&gt;&lt;font face=&quot;Courier New&quot;&gt;[cc, S]&lt;/font&gt; - deletes current line characters and enters into Insert mode&lt;/li&gt;&lt;li&gt;&lt;font face=&quot;Courier New&quot;&gt;m{a-zA-Z}&lt;/font&gt; - marks cursor position, lowercase marks local to each buffer, uppcase global accessible&lt;/li&gt;&lt;/ol&gt;&lt;h3&gt;Motions&lt;/h3&gt;&lt;/div&gt;&lt;div&gt;Short range movement are called motions, see &lt;font face=&quot;Courier New&quot;&gt;:h motion.txt, h: word, h: WORD&lt;/font&gt;&lt;/div&gt;&lt;div&gt;&lt;ol&gt;&lt;li&gt;&lt;font face=&quot;Courier New&quot;&gt;%&lt;/font&gt; - moves to corresponding &lt;font face=&quot;Courier New&quot;&gt;(){}[]&lt;/font&gt;&lt;/li&gt;&lt;li&gt;&lt;font face=&quot;Courier New&quot;&gt;[0, g0]&lt;/font&gt; - moves&amp;nbsp;to the first character of the real line or display line&lt;/li&gt;&lt;li&gt;&lt;font face=&quot;Courier New&quot;&gt;[^, g^]&lt;/font&gt;&amp;nbsp;- moves&amp;nbsp;to the first non-blank character of the real line or display line&lt;/li&gt;&lt;li&gt;&lt;font face=&quot;Courier New&quot;&gt;[$, g$]&lt;/font&gt;&amp;nbsp;- moves&amp;nbsp;to the end of the real line or display line&lt;/li&gt;&lt;li&gt;&lt;font face=&quot;Courier New&quot;&gt;[h, j, k, l]&lt;/font&gt; - moves left, down, up and right&lt;/li&gt;&lt;li&gt;&lt;font face=&quot;Courier New&quot;&gt;g[j, k]&lt;/font&gt; - moves down and up by display line&lt;/li&gt;&lt;li&gt;&lt;font face=&quot;Courier New&quot;&gt;[b, B, e, E]&lt;/font&gt; - moves&amp;nbsp;to the begining or end of word or WORD&lt;/li&gt;&lt;li&gt;&lt;font face=&quot;Courier New&quot;&gt;[ge, gE]&lt;/font&gt; - moves&amp;nbsp;to the end of previous word or WORD&lt;/li&gt;&lt;li&gt;&lt;font face=&quot;Courier New&quot;&gt;[w, W]&lt;/font&gt; - moves&amp;nbsp;to next word or WORD&lt;/li&gt;&lt;li&gt;&lt;font face=&quot;Courier New&quot;&gt;[*, #]&lt;/font&gt; - moves&amp;nbsp;to next or previous word same as the word under the cursor&lt;/li&gt;&lt;li&gt;&lt;font face=&quot;Courier New&quot;&gt;[;, ]&lt;/font&gt; - moves&amp;nbsp;to next or previous position when using &lt;font face=&quot;Courier New&quot;&gt;f{char}&lt;/font&gt; or &lt;font face=&quot;Courier New&quot;&gt;t{char}&lt;/font&gt;&lt;/li&gt;&lt;li&gt;&lt;font face=&quot;Courier New&quot;&gt;[n, N]&lt;/font&gt; - moves&amp;nbsp;to next or previous starting contents when using Searching mode&amp;nbsp;&lt;font face=&quot;Courier New&quot;&gt;/&lt;/font&gt; or &lt;font face=&quot;Courier New&quot;&gt;?&lt;/font&gt;&lt;/li&gt;&lt;li&gt;&lt;font face=&quot;Courier New&quot;&gt;'{mark}&lt;/font&gt; - moves&amp;nbsp;to first non-blank character of marked line&lt;/li&gt;&lt;li&gt;&lt;font face=&quot;Courier New&quot;&gt;`{mark}&lt;/font&gt; - moves&amp;nbsp;to the mark position, &lt;font face=&quot;Courier New&quot;&gt;mm&lt;/font&gt; and &lt;font face=&quot;Courier New&quot;&gt;`m&lt;/font&gt; are good pairs to set mark and moves&amp;nbsp;to&lt;/li&gt;&lt;/ol&gt;&lt;h3&gt;Jumps&lt;/h3&gt;&lt;/div&gt;&lt;div&gt;Long-range movement are called jumps. &lt;font face=&quot;Courier New&quot;&gt;:jumps&lt;/font&gt; lists all the jumps, and &lt;font face=&quot;Courier New&quot;&gt;:changes&lt;/font&gt; lists modifications made to each buffer.&lt;/div&gt;&lt;div&gt;&lt;ol&gt;&lt;li&gt;&lt;font face=&quot;Courier New&quot;&gt;[&amp;lt;c-i&amp;gt;, &amp;lt;c-o&amp;gt;]&lt;/font&gt; - jumps back and forward&lt;/li&gt;&lt;li&gt;&lt;font face=&quot;Courier New&quot;&gt;gf&lt;/font&gt; - jumps to the file under the cursor&lt;/li&gt;&lt;li&gt;&lt;font face=&quot;Courier New&quot;&gt;[H, M, L]&lt;/font&gt; - jumps to the top, middle and bottom of the screen&lt;/li&gt;&lt;li&gt;&lt;font face=&quot;Courier New&quot;&gt;&amp;lt;c-]&amp;gt;&lt;/font&gt; - jumps to the definition of the keyword under the cursor&lt;/li&gt;&lt;li&gt;&lt;font face=&quot;Courier New&quot;&gt;&amp;lt;c-t&amp;gt;&lt;/font&gt; - jumps back from the tag visited&lt;/li&gt;&lt;li&gt;&lt;font face=&quot;Courier New&quot;&gt;g&amp;lt;c-]&amp;gt;&lt;/font&gt; - like &lt;font face=&quot;Courier New&quot;&gt;&amp;lt;c-]&amp;gt;&lt;/font&gt;, but lists choices when multiple tags match&lt;/li&gt;&lt;/ol&gt;&lt;/div&gt;&lt;/td&gt;&lt;/tr&gt;&lt;tr&gt;&lt;td&gt;Register&lt;/td&gt;&lt;td&gt;Vim does not deal with a clipboard, but with registers instead, andVim has multiple registers. The delete, yank and put commands&lt;br&gt;all interact with one of vim's registers.&lt;br&gt;&lt;br&gt;&lt;font face=&quot;Courier New&quot;&gt;&quot;&lt;/font&gt; is called unname register. &lt;font face=&quot;Courier New&quot;&gt;x, s, d{motion}, c{motion}&lt;/font&gt; all copied contents to the unnamed register, while &lt;font face=&quot;Courier New&quot;&gt;y{motion}&lt;/font&gt; not&lt;br&gt;only copys contents to the unnamed register, but also to yank register &lt;font face=&quot;Courier New&quot;&gt;0&lt;/font&gt;.&lt;br&gt;&lt;br&gt;An uppercase register &lt;font face=&quot;Courier New&quot;&gt;[A-Z]&lt;/font&gt; will append contents to the corresponding register, while lowercase register &lt;font face=&quot;Courier New&quot;&gt;[a-z]&lt;/font&gt; will overwrite the&lt;br&gt;register.&lt;br&gt;&lt;br&gt;&lt;font face=&quot;Courier New&quot;&gt;_&lt;/font&gt;&amp;nbsp;is called the black hole, from which nothing returns, e.g., &lt;font face=&quot;Courier New&quot;&gt;&quot;_d{motion}&lt;/font&gt;. This can be useful if to delete text without overwriting the&lt;br&gt;contents of the unamed register.&lt;br&gt;&lt;ol&gt;&lt;li&gt;&lt;font face=&quot;Courier New&quot;&gt;&quot;uyiw&lt;/font&gt; - yanks word to register &lt;font face=&quot;Courier New&quot;&gt;u&lt;/font&gt;&lt;/li&gt;&lt;li&gt;&lt;font face=&quot;Courier New&quot;&gt;&amp;lt;c-r&amp;gt;&quot;&lt;/font&gt;&amp;nbsp;- pastes contents from unnamed register &lt;font face=&quot;Courier New&quot;&gt;&quot;&lt;/font&gt;, &lt;font face=&quot;Courier New&quot;&gt;&amp;lt;c-r&amp;gt;u&lt;/font&gt; from register &lt;font face=&quot;Courier New&quot;&gt;u&lt;/font&gt;&lt;/li&gt;&lt;li&gt;&lt;font face=&quot;Courier New&quot;&gt;&amp;lt;c-r&amp;gt;&amp;lt;c-w&amp;gt;&lt;/font&gt; - copies and pastes word under the cursor&lt;/li&gt;&lt;li&gt;&lt;font face=&quot;Courier New&quot;&gt;&amp;lt;c-r&amp;gt;.&lt;/font&gt; - last inserted contents&lt;/li&gt;&lt;li&gt;&lt;font face=&quot;Courier New&quot;&gt;&amp;lt;c-r&amp;gt;:&lt;/font&gt;&amp;nbsp;- last Ex command&lt;/li&gt;&lt;li&gt;&lt;font face=&quot;Courier New&quot;&gt;&amp;lt;c-r&amp;gt;/&lt;/font&gt;&amp;nbsp;- last Search contents&lt;/li&gt;&lt;li&gt;&lt;font face=&quot;Courier New&quot;&gt;&amp;lt;c-r&amp;gt;%&lt;/font&gt;&amp;nbsp;- name of current file&lt;/li&gt;&lt;li&gt;&lt;font face=&quot;Courier New&quot;&gt;&amp;lt;c-r&amp;gt;#&lt;/font&gt;&amp;nbsp;- name of alternate file&lt;/li&gt;&lt;li&gt;&lt;font face=&quot;Courier New&quot;&gt;@u&lt;/font&gt;&amp;nbsp;- refers to the value in register &lt;font face=&quot;Courier New&quot;&gt;u&lt;/font&gt; in Ex mode&lt;/li&gt;&lt;li&gt;&lt;font face=&quot;Courier New&quot;&gt;&amp;lt;c-r&amp;gt;=&lt;/font&gt;&amp;nbsp;- enters expression register prompt&lt;/li&gt;&lt;li&gt;&lt;font face=&quot;Courier New&quot; style=&quot;font-size: 1em&quot;&gt;:reg a&lt;/font&gt;&lt;span style=&quot;font-size: 1em&quot;&gt; - list content in register &lt;/span&gt;&lt;font face=&quot;Courier New&quot; style=&quot;font-size: 1em&quot;&gt;a&lt;/font&gt;&lt;br&gt;&lt;/li&gt;&lt;/ol&gt;&lt;/td&gt;&lt;/tr&gt;&lt;tr&gt;&lt;td&gt;Macros&lt;/td&gt;&lt;td&gt;The &lt;font face=&quot;Courier New&quot;&gt;q&lt;/font&gt; key functions both as the record button and stop button. &lt;font face=&quot;Courier New&quot;&gt;q{register}&lt;/font&gt;&amp;nbsp;begins to record, giving the address of the register&lt;br&gt;where we want to save the macro. Every command executed will be captured, until press &lt;font face=&quot;Courier New&quot;&gt;q&lt;/font&gt;&amp;nbsp;again to stop recording. &lt;br&gt;&lt;br&gt;&lt;font face=&quot;Courier New&quot;&gt;@a&lt;/font&gt; executes the contents of the specified register a. &lt;font face=&quot;Courier New&quot;&gt;@@&lt;/font&gt; repeats the last macro.&lt;br&gt;&lt;/td&gt;&lt;/tr&gt;&lt;tr&gt;&lt;td&gt;Functions&lt;/td&gt;&lt;td&gt;&lt;font face=&quot;Courier New&quot;&gt;getcmdtype()&lt;/font&gt; - get command type&lt;br&gt;&lt;font face=&quot;Courier New&quot;&gt;.&lt;/font&gt; - joins strings &lt;br&gt;&lt;font face=&quot;Courier New&quot;&gt;escape()&lt;/font&gt; - &lt;font face=&quot;Courier New&quot;&gt;&amp;lt;C-r&amp;gt;=escape(@u, getcmdtype().&quot;\&quot;)&lt;/font&gt; e.g., escape characters in &lt;font face=&quot;Courier New&quot;&gt;getcmdtype()&lt;/font&gt; and &lt;font face=&quot;Courier New&quot;&gt;\&lt;/font&gt;&lt;br&gt;&lt;font face=&quot;Courier New&quot;&gt;:promptfind()&lt;/font&gt; - for searching in gvim&lt;br&gt;&lt;/td&gt;&lt;/tr&gt;&lt;/tbody&gt;&lt;/table&gt; " style="verticalAlign=top;align=left;overflow=fill;fontSize=12;fontFamily=Helvetica;html=1" vertex="1" parent="6TqpIzhUsz38Vr0FgvVc-1">
                    <mxGeometry x="10" y="10" width="800" height="1740" as="geometry"/>
                </mxCell>
            </root>
        </mxGraphModel>
    </diagram>
    <diagram id="6hGFLwfOUW9BJ-s0fimq" name="Keybindings">
        <mxGraphModel dx="822" dy="480" grid="1" gridSize="10" guides="1" tooltips="1" connect="1" arrows="1" fold="1" page="1" pageScale="1" pageWidth="827" pageHeight="1169" math="0" shadow="0">
            <root>
                <mxCell id="0"/>
                <mxCell id="1" parent="0"/>
                <mxCell id="3" value="&lt;table cellpadding=&quot;4&quot; cellspacing=&quot;0&quot; border=&quot;1&quot; style=&quot;font-size: 1em ; width: 100% ; height: 100%&quot;&gt;&lt;tbody&gt;&lt;tr&gt;&lt;th&gt;Keys&lt;/th&gt;&lt;th&gt;Content&lt;/th&gt;&lt;/tr&gt;&lt;tr&gt;&lt;td&gt;&lt;font face=&quot;Courier New&quot;&gt;&amp;lt;c-g&amp;gt;&lt;/font&gt;&lt;/td&gt;&lt;td&gt;display name and status of the current file&lt;br&gt;&lt;/td&gt;&lt;/tr&gt;&lt;tr&gt;&lt;td&gt;&lt;font face=&quot;Courier New&quot;&gt;ga&lt;/font&gt;&lt;/td&gt;&lt;td&gt;show the character ascii value&lt;br&gt;&lt;/td&gt;&lt;/tr&gt;&lt;tr&gt;&lt;td&gt;&lt;font face=&quot;Courier New&quot;&gt;&amp;lt;c-v&amp;gt;ooo&lt;/font&gt;&lt;/td&gt;&lt;td&gt;insert character in ascii using three dicimal digits, &lt;font face=&quot;Courier New&quot;&gt;&amp;lt;c-v&amp;gt;097&lt;/font&gt; means &lt;font face=&quot;Courier New&quot;&gt;a&lt;/font&gt;&lt;br&gt;&lt;/td&gt;&lt;/tr&gt;&lt;tr&gt;&lt;td&gt;&lt;font face=&quot;Courier New&quot;&gt;&amp;lt;c-r&amp;gt;{register}&lt;/font&gt;&lt;/td&gt;&lt;td&gt;insert the contents of {register}&lt;br&gt;&lt;/td&gt;&lt;/tr&gt;&lt;tr&gt;&lt;td&gt;&lt;font face=&quot;Courier New&quot;&gt;gUU&lt;/font&gt;&lt;/td&gt;&lt;td&gt;make current line uppercase&lt;br&gt;&lt;/td&gt;&lt;/tr&gt;&lt;tr&gt;&lt;td&gt;&lt;font face=&quot;Courier New&quot;&gt;gv&lt;/font&gt;&lt;/td&gt;&lt;td&gt;hight the last selection in visual mode&lt;br&gt;&lt;/td&gt;&lt;/tr&gt;&lt;tr&gt;&lt;td&gt;&lt;font face=&quot;Courier New&quot;&gt;~&lt;/font&gt;&lt;/td&gt;&lt;td&gt;toggle between uppercase and lowercase&lt;br&gt;&lt;/td&gt;&lt;/tr&gt;&lt;tr&gt;&lt;td&gt;&lt;font face=&quot;Courier New&quot;&gt;/searching/e&lt;/font&gt;&lt;/td&gt;&lt;td&gt;place the cursor at the end of the search match&lt;br&gt;&lt;/td&gt;&lt;/tr&gt;&lt;tr&gt;&lt;td&gt;&lt;font face=&quot;Courier New&quot;&gt;%s/searching//gn&lt;/font&gt;&lt;/td&gt;&lt;td&gt;find counts of the searching words&lt;br&gt;&lt;/td&gt;&lt;/tr&gt;&lt;tr&gt;&lt;td&gt;&lt;font face=&quot;Courier New&quot;&gt;:&amp;amp;&amp;amp;&lt;/font&gt;&lt;/td&gt;&lt;td&gt;act on the current line the &lt;br&gt;&lt;ol&gt;&lt;li&gt;first &lt;font face=&quot;Courier New&quot;&gt;&amp;amp;&lt;/font&gt; repeats the last &lt;font face=&quot;Courier New&quot;&gt;:substitute&lt;/font&gt; command&lt;/li&gt;&lt;li&gt;the second &lt;font face=&quot;Courier New&quot;&gt;&amp;amp;&lt;/font&gt; indicates that the flags from the previous &lt;font face=&quot;Courier New&quot;&gt;:s&lt;/font&gt; command should be used&amp;nbsp;&lt;/li&gt;&lt;/ol&gt;&lt;/td&gt;&lt;/tr&gt;&lt;tr&gt;&lt;td&gt;&lt;font face=&quot;Courier New&quot;&gt;g&amp;amp;&lt;/font&gt;&lt;/td&gt;&lt;td&gt;&lt;font face=&quot;Courier New&quot;&gt;%s//~/&amp;amp;&lt;br&gt;&lt;/font&gt;&lt;/td&gt;&lt;/tr&gt;&lt;tr&gt;&lt;td&gt;&lt;font face=&quot;Courier New&quot;&gt;!mkdir -p %:h&lt;/font&gt;&lt;/td&gt;&lt;td&gt;&lt;br&gt;&lt;/td&gt;&lt;/tr&gt;&lt;tr&gt;&lt;td&gt;&lt;font face=&quot;Courier New&quot;&gt;:w !sudo tee % &amp;gt; /dev/null&lt;/font&gt;&lt;/td&gt;&lt;td&gt;&lt;br&gt;&lt;/td&gt;&lt;/tr&gt;&lt;tr&gt;&lt;td&gt;&lt;font face=&quot;Courier New&quot;&gt;:@&lt;/font&gt;&lt;/td&gt;&lt;td&gt;repeat the last ex command&lt;br&gt;&lt;/td&gt;&lt;/tr&gt;&lt;tr&gt;&lt;td&gt;&lt;font face=&quot;Courier New&quot;&gt;q:|:&amp;lt;c-f&amp;gt;&lt;/font&gt;&lt;/td&gt;&lt;td&gt;open the window with history of ex commmands&lt;br&gt;&lt;/td&gt;&lt;/tr&gt;&lt;tr&gt;&lt;td&gt;&lt;font face=&quot;Courier New&quot;&gt;q/&lt;/font&gt;&lt;/td&gt;&lt;td&gt;open the window with history of searches&lt;br&gt;&lt;/td&gt;&lt;/tr&gt;&lt;tr&gt;&lt;td&gt;&lt;font face=&quot;Courier New&quot;&gt;qaq&lt;/font&gt;&lt;/td&gt;&lt;td&gt;clear register &lt;font face=&quot;Courier New&quot;&gt;a&lt;/font&gt;. &lt;font face=&quot;Courier New&quot;&gt;qa&lt;/font&gt;&amp;nbsp;starts recording a macro into register &lt;font face=&quot;Courier New&quot;&gt;a&lt;/font&gt;. the second&amp;nbsp;&lt;font face=&quot;Courier New&quot;&gt;q&lt;/font&gt; stops recording.&lt;br&gt;we type nothing while the marco was recording, so the register ends up empty.&lt;br&gt;check that register using &lt;font face=&quot;Courier New&quot;&gt;:reg a&lt;/font&gt;&lt;br&gt;&lt;/td&gt;&lt;/tr&gt;&lt;tr&gt;&lt;td&gt;&lt;font face=&quot;Courier New&quot;&gt;:global /{/ .+1,/}/-1sort&lt;br&gt;&lt;/font&gt;&lt;/td&gt;&lt;td&gt;&lt;br&gt;&lt;/td&gt;&lt;/tr&gt;&lt;tr&gt;&lt;td&gt;&lt;font face=&quot;Courier New&quot;&gt;[&amp;lt;c-a&amp;gt;, &amp;lt;c-x&amp;gt;]&lt;br&gt;&lt;/font&gt;&lt;/td&gt;&lt;td&gt;increase or subtract a number&lt;br&gt;&lt;/td&gt;&lt;/tr&gt;&lt;/tbody&gt;&lt;/table&gt; " style="verticalAlign=top;align=left;overflow=fill;fontSize=12;fontFamily=Helvetica;html=1" parent="1" vertex="1">
                    <mxGeometry x="10" y="10" width="800" height="610" as="geometry"/>
                </mxCell>
            </root>
        </mxGraphModel>
    </diagram>
</mxfile>